<?xml version="1.0" encoding="UTF-8" standalone="no"?>
<!-- Created with Inkscape (http://www.inkscape.org/) -->

<svg
   xmlns:dc="http://purl.org/dc/elements/1.1/"
   xmlns:cc="http://creativecommons.org/ns#"
   xmlns:rdf="http://www.w3.org/1999/02/22-rdf-syntax-ns#"
   xmlns:svg="http://www.w3.org/2000/svg"
   xmlns="http://www.w3.org/2000/svg"
   xmlns:sodipodi="http://sodipodi.sourceforge.net/DTD/sodipodi-0.dtd"
   xmlns:inkscape="http://www.inkscape.org/namespaces/inkscape"
   width="77.915833mm"
   height="53.540516mm"
   viewBox="0 0 77.915833 53.540516"
   version="1.1"
   id="svg6179"
   inkscape:version="0.92.2 5c3e80d, 2017-08-06"
   sodipodi:docname="clusterlabs2.svg">
  <defs
     id="defs6173" />
  <sodipodi:namedview
     id="base"
     pagecolor="#ffffff"
     bordercolor="#666666"
     borderopacity="1.0"
     inkscape:pageopacity="0.0"
     inkscape:pageshadow="2"
     inkscape:zoom="0.35"
     inkscape:cx="-395.61463"
     inkscape:cy="44.036049"
     inkscape:document-units="mm"
     inkscape:current-layer="layer1"
     showgrid="false"
     fit-margin-top="8"
     fit-margin-left="24"
     fit-margin-bottom="8"
     fit-margin-right="24"
     inkscape:window-width="1600"
     inkscape:window-height="829"
     inkscape:window-x="0"
     inkscape:window-y="34"
     inkscape:window-maximized="1" />
  <metadata
     id="metadata6176">
    <rdf:RDF>
      <cc:Work
         rdf:about="">
        <dc:format>image/svg+xml</dc:format>
        <dc:type
           rdf:resource="http://purl.org/dc/dcmitype/StillImage" />
        <dc:title></dc:title>
      </cc:Work>
    </rdf:RDF>
  </metadata>
  <g
     inkscape:label="Layer 1"
     inkscape:groupmode="layer"
     id="layer1"
     transform="translate(-57.048038,-106.94403)">
    <g
       transform="matrix(0.35277777,0,0,0.35277777,40.678411,25.702277)"
       id="g6155">
      <path
         style="fill:#4fc1e9;fill-opacity:1;fill-rule:nonzero;stroke:none"
         d="m 154.12109,268.0625 c 0,2.29297 -1.85937,4.15234 -4.15234,4.15234 -2.29297,0 -4.15234,-1.85937 -4.15234,-4.15234 0,-2.29297 1.85937,-4.15234 4.15234,-4.15234 2.29297,0 4.15234,1.85937 4.15234,4.15234"
         id="path4744"
         inkscape:connector-curvature="0" />
      <path
         style="fill:#4fc1e9;fill-opacity:1;fill-rule:nonzero;stroke:none"
         d="m 166.42578,258.94531 c 0,3.29688 -2.67578,5.97266 -5.97266,5.97266 -3.30078,0 -5.97656,-2.67578 -5.97656,-5.97266 0,-3.30078 2.67578,-5.97656 5.97656,-5.97656 3.29688,0 5.97266,2.67578 5.97266,5.97656"
         id="path4746"
         inkscape:connector-curvature="0" />
      <path
         style="fill:#4fc1e9;fill-opacity:1;fill-rule:nonzero;stroke:none"
         d="m 159.89453,275.58594 c -0.625,-0.97266 -1.70703,-1.6211 -2.94922,-1.6211 -1.23437,0 -2.3164,0.64063 -2.9414,1.60547 -0.35547,0.54688 -0.56641,1.19922 -0.56641,1.90235 0,0.67968 0.19922,1.30859 0.53516,1.84765 h 5.9414 c 0.33594,-0.53906 0.53906,-1.16797 0.53906,-1.84765 0,-0.69532 -0.21093,-1.33985 -0.55859,-1.88672"
         id="path4748"
         inkscape:connector-curvature="0" />
      <path
         style="fill:#4fc1e9;fill-opacity:1;fill-rule:nonzero;stroke:none"
         d="m 156.94531,336.55859 c 1.9375,0 3.50781,1.57032 3.50781,3.50782 0,1.9375 -1.57031,3.50781 -3.50781,3.50781 -1.9375,0 -3.50781,-1.57031 -3.50781,-3.50781 0,-1.9375 1.57031,-3.50782 3.50781,-3.50782 m 12.66406,0 c 1.9375,0 3.50782,1.57032 3.50782,3.50782 0,1.9375 -1.57032,3.50781 -3.50782,3.50781 -1.9375,0 -3.50781,-1.57031 -3.50781,-3.50781 0,-1.9375 1.57031,-3.50782 3.50781,-3.50782 m -12.77343,16.72266 c 9.57422,0 18.28125,-3.71484 24.76562,-9.77344 -1.61328,-0.3164 -2.83203,-1.73437 -2.83203,-3.4414 0,-1.9375 1.57031,-3.50782 3.50781,-3.50782 1.58985,0 2.91797,1.06641 3.34766,2.51953 2.09375,-2.72265 3.80469,-5.7539 5.06641,-9.00781 h -67.71094 c 5.25,13.57813 18.42187,23.21094 33.85547,23.21094"
         id="path4750"
         inkscape:connector-curvature="0" />
      <path
         style="fill:#4fc1e9;fill-opacity:1;fill-rule:nonzero;stroke:none"
         d="m 182.27734,320.10937 c -1.9375,0 -3.50781,-1.57031 -3.50781,-3.50781 0,-1.9375 1.57031,-3.50781 3.50781,-3.50781 1.9375,0 3.50782,1.57031 3.50782,3.50781 0,1.9375 -1.57032,3.50781 -3.50782,3.50781 m -12.66797,0 c -1.9375,0 -3.50781,-1.57031 -3.50781,-3.50781 0,-1.9375 1.57031,-3.50781 3.50781,-3.50781 1.9375,0 3.50782,1.57031 3.50782,3.50781 0,1.9375 -1.57032,3.50781 -3.50782,3.50781 m -12.66406,0 c -1.9375,0 -3.50781,-1.57031 -3.50781,-3.50781 0,-1.9375 1.57031,-3.50781 3.50781,-3.50781 1.9375,0 3.50781,1.57031 3.50781,3.50781 0,1.9375 -1.57031,3.50781 -3.50781,3.50781 m 34.67188,-13.5039 h -69.56641 c -0.98047,3.28906 -1.51172,6.77344 -1.51172,10.3789 0,3.32813 0.45703,6.55079 1.29688,9.61329 h 70 c 0.83984,-3.0625 1.29687,-6.28516 1.29687,-9.61329 0,-3.60546 -0.53515,-7.08984 -1.51562,-10.3789"
         id="path4752"
         inkscape:connector-curvature="0" />
      <path
         style="fill:#4fc1e9;fill-opacity:1;fill-rule:nonzero;stroke:none"
         d="m 169.60937,296.39844 c -1.9375,0 -3.50781,-1.57032 -3.50781,-3.50782 0,-1.9375 1.57031,-3.50781 3.50781,-3.50781 1.9375,0 3.50782,1.57031 3.50782,3.50781 0,1.9375 -1.57032,3.50782 -3.50782,3.50782 m -12.66406,0 c -1.9375,0 -3.50781,-1.57032 -3.50781,-3.50782 0,-1.9375 1.57031,-3.50781 3.50781,-3.50781 1.9375,0 3.50781,1.57031 3.50781,3.50781 0,1.9375 -1.57031,3.50782 -3.50781,3.50782 m 28.40625,-1.85547 c -0.59375,1.09765 -1.73828,1.85547 -3.07422,1.85547 -1.9375,0 -3.50781,-1.57032 -3.50781,-3.50782 0,-1.40234 0.82813,-2.60546 2.01953,-3.16796 -3.53125,-3.10157 -7.66406,-5.52735 -12.20312,-7.07813 h -23.50391 c -9.87891,3.37891 -17.83984,10.89453 -21.80469,20.49219 h 67.11328 c -1.28515,-3.10547 -2.98828,-5.99219 -5.03906,-8.59375"
         id="path4754"
         inkscape:connector-curvature="0" />
      <path
         style="fill:#434a54;fill-opacity:1;fill-rule:nonzero;stroke:none"
         d="m 156.83594,359.38281 c -23.37891,0 -42.40235,-19.01953 -42.40235,-42.39844 0,-16.5664 9.64454,-31.58984 24.64063,-38.51171 v -16.70313 h -2.85547 c -0.71875,0 -1.30469,-0.58203 -1.30469,-1.30469 0,-0.72265 0.58594,-1.30468 1.30469,-1.30468 h 5.46875 v 21.01171 l -0.78125,0.33985 c -14.49609,6.34375 -23.85937,20.65625 -23.85937,36.47265 0,21.9375 17.84765,39.78516 39.78906,39.78516 21.9375,0 39.78515,-17.84766 39.78515,-39.78516 0,-16.2539 -9.72265,-30.72265 -24.77734,-36.85937 l -0.8125,-0.33203 v -20.63281 h 5.09766 c 0.71875,0 1.30468,0.58203 1.30468,1.30468 0,0.72266 -0.58593,1.30469 -1.30468,1.30469 h -2.48438 v 16.27734 c 15.57422,6.72266 25.58984,21.91016 25.58984,38.9375 0,23.37891 -19.01953,42.39844 -42.39843,42.39844"
         id="path4756"
         inkscape:connector-curvature="0" />
    </g>
  </g>
</svg>
