<?xml version="1.0" encoding="UTF-8" standalone="no"?>
<!-- Created with Inkscape (http://www.inkscape.org/) -->

<svg
   xmlns:dc="http://purl.org/dc/elements/1.1/"
   xmlns:cc="http://creativecommons.org/ns#"
   xmlns:rdf="http://www.w3.org/1999/02/22-rdf-syntax-ns#"
   xmlns:svg="http://www.w3.org/2000/svg"
   xmlns="http://www.w3.org/2000/svg"
   xmlns:sodipodi="http://sodipodi.sourceforge.net/DTD/sodipodi-0.dtd"
   xmlns:inkscape="http://www.inkscape.org/namespaces/inkscape"
   width="39.961308mm"
   height="47.984241mm"
   viewBox="0 0 39.961308 47.984241"
   version="1.1"
   id="svg1093"
   inkscape:version="0.92.4 (5da689c313, 2019-01-14)"
   sodipodi:docname="beaker_v2.svg">
  <title
     id="title5471">Clusterlabs Logo</title>
  <defs
     id="defs1087" />
  <sodipodi:namedview
     id="base"
     pagecolor="#ffffff"
     bordercolor="#666666"
     borderopacity="1.0"
     inkscape:pageopacity="0.0"
     inkscape:pageshadow="2"
     inkscape:zoom="4.6530263"
     inkscape:cx="75.517431"
     inkscape:cy="90.678879"
     inkscape:document-units="mm"
     inkscape:current-layer="layer1"
     showgrid="false"
     fit-margin-top="5"
     fit-margin-left="5"
     fit-margin-right="5"
     fit-margin-bottom="5"
     inkscape:window-width="1600"
     inkscape:window-height="829"
     inkscape:window-x="0"
     inkscape:window-y="34"
     inkscape:window-maximized="1" />
  <metadata
     id="metadata1090">
    <rdf:RDF>
      <cc:Work
         rdf:about="">
        <dc:format>image/svg+xml</dc:format>
        <dc:type
           rdf:resource="http://purl.org/dc/dcmitype/StillImage" />
        <dc:title>Clusterlabs Logo</dc:title>
        <cc:license
           rdf:resource="http://creativecommons.org/licenses/by/4.0/" />
        <dc:creator>
          <cc:Agent>
            <dc:title></dc:title>
          </cc:Agent>
        </dc:creator>
      </cc:Work>
      <cc:License
         rdf:about="http://creativecommons.org/licenses/by/4.0/">
        <cc:permits
           rdf:resource="http://creativecommons.org/ns#Reproduction" />
        <cc:permits
           rdf:resource="http://creativecommons.org/ns#Distribution" />
        <cc:requires
           rdf:resource="http://creativecommons.org/ns#Notice" />
        <cc:requires
           rdf:resource="http://creativecommons.org/ns#Attribution" />
        <cc:permits
           rdf:resource="http://creativecommons.org/ns#DerivativeWorks" />
      </cc:License>
    </rdf:RDF>
  </metadata>
  <g
     inkscape:label="Layer 1"
     inkscape:groupmode="layer"
     id="layer1"
     transform="translate(-63.174106,-107.45431)">
    <path
       inkscape:connector-curvature="0"
       id="path4862"
       d="M 93.390827,150.43855 H 72.859436 c -1.018367,0 -2.94211,-0.68488 -2.94211,-3.27835 v -29.11795 h -1.214053 c -0.293522,0 -0.529167,-0.23702 -0.529167,-0.52917 0,-0.29214 0.235645,-0.52916 0.529167,-0.52916 h 1.743219 c 0.290767,0 0.529167,0.23702 0.529167,0.52916 v 29.64712 c 0,2.1332 1.694988,2.21726 1.887911,2.22002 h 20.527257 c 1.879646,0 1.941657,-1.69774 1.943036,-1.89205 v -29.97509 c 0,-0.29214 0.237021,-0.52916 0.529167,-0.52916 h 1.743216 c 0.292146,0 0.529167,0.23702 0.529167,0.52916 0,0.29215 -0.237021,0.52917 -0.529167,0.52917 h -1.214049 v 29.44868 c -0.0055,1.02113 -0.638034,2.94762 -3.00137,2.94762"
       style="fill:#434a54;fill-opacity:1;fill-rule:nonzero;stroke:none;stroke-width:0.35277778" />
    <path
       inkscape:connector-curvature="0"
       id="path4864"
       d="m 72.271017,141.28149 v 6.09506 c 0,0 0.0372,0.64217 0.64354,0.64217 h 20.604427 c 0,0 0.54846,0 0.54846,-0.54708 v -6.19015 z m 0,0"
       style="fill:#4fc1e9;fill-opacity:1;fill-rule:nonzero;stroke:none;stroke-width:0.35277778" />
    <path
       inkscape:connector-curvature="0"
       id="path4866"
       d="m 72.272392,139.79183 h 21.795052 v -6.73861 H 72.272392 Z m 0,0"
       style="fill:#4fc1e9;fill-opacity:1;fill-rule:nonzero;stroke:none;stroke-width:0.35277778" />
    <path
       inkscape:connector-curvature="0"
       id="path4868"
       d="m 94.067444,131.56356 v -6.09506 c 0,0 -0.03721,-0.64217 -0.642165,-0.64217 H 72.819473 c 0,0 -0.547081,0 -0.547081,0.54708 v 6.19015 z m 0,0"
       style="fill:#4fc1e9;fill-opacity:1;fill-rule:nonzero;stroke:none;stroke-width:0.35277778" />
    <path
       inkscape:connector-curvature="0"
       id="path4870"
       d="m 91.607648,128.19426 c 0,0.53468 -0.432706,0.96738 -0.966008,0.96738 -0.534677,0 -0.96738,-0.4327 -0.96738,-0.96738 0,-0.5333 0.432703,-0.966 0.96738,-0.966 0.533302,0 0.966008,0.4327 0.966008,0.966"
       style="fill:#ffffff;fill-opacity:1;fill-rule:nonzero;stroke:none;stroke-width:0.35277778" />
    <path
       inkscape:connector-curvature="0"
       id="path4872"
       d="m 87.871784,128.19426 c 0,0.53468 -0.432703,0.96738 -0.966004,0.96738 -0.534677,0 -0.967384,-0.4327 -0.967384,-0.96738 0,-0.5333 0.432707,-0.966 0.967384,-0.966 0.533301,0 0.966004,0.4327 0.966004,0.966"
       style="fill:#ffffff;fill-opacity:1;fill-rule:nonzero;stroke:none;stroke-width:0.35277778" />
    <path
       inkscape:connector-curvature="0"
       id="path4874"
       d="m 84.135924,128.19426 c 0,0.53468 -0.432703,0.96738 -0.966004,0.96738 -0.534681,0 -0.967384,-0.4327 -0.967384,-0.96738 0,-0.5333 0.432703,-0.966 0.967384,-0.966 0.533301,0 0.966004,0.4327 0.966004,0.966"
       style="fill:#ffffff;fill-opacity:1;fill-rule:nonzero;stroke:none;stroke-width:0.35277778" />
    <path
       inkscape:connector-curvature="0"
       id="path4876"
       d="m 91.607648,136.42253 c 0,0.5333 -0.432706,0.966 -0.966008,0.966 -0.534677,0 -0.96738,-0.4327 -0.96738,-0.966 0,-0.5333 0.432703,-0.96601 0.96738,-0.96601 0.533302,0 0.966008,0.43271 0.966008,0.96601"
       style="fill:#ffffff;fill-opacity:1;fill-rule:nonzero;stroke:none;stroke-width:0.35277778" />
    <path
       inkscape:connector-curvature="0"
       id="path4878"
       d="m 87.871784,136.42253 c 0,0.5333 -0.432703,0.966 -0.966004,0.966 -0.534677,0 -0.967384,-0.4327 -0.967384,-0.966 0,-0.5333 0.432707,-0.96601 0.967384,-0.96601 0.533301,0 0.966004,0.43271 0.966004,0.96601"
       style="fill:#ffffff;fill-opacity:1;fill-rule:nonzero;stroke:none;stroke-width:0.35277778" />
    <path
       inkscape:connector-curvature="0"
       id="path4880"
       d="m 84.135924,136.42253 c 0,0.5333 -0.432703,0.966 -0.966004,0.966 -0.534681,0 -0.967384,-0.4327 -0.967384,-0.966 0,-0.5333 0.432703,-0.96601 0.967384,-0.96601 0.533301,0 0.966004,0.43271 0.966004,0.96601"
       style="fill:#ffffff;fill-opacity:1;fill-rule:nonzero;stroke:none;stroke-width:0.35277778" />
    <path
       inkscape:connector-curvature="0"
       id="path4882"
       d="m 91.607648,144.65079 c 0,0.5333 -0.432706,0.96601 -0.966008,0.96601 -0.534677,0 -0.96738,-0.43271 -0.96738,-0.96601 0,-0.53468 0.432703,-0.96738 0.96738,-0.96738 0.533302,0 0.966008,0.4327 0.966008,0.96738"
       style="fill:#ffffff;fill-opacity:1;fill-rule:nonzero;stroke:none;stroke-width:0.35277778" />
    <path
       inkscape:connector-curvature="0"
       id="path4884"
       d="m 87.871784,144.65079 c 0,0.5333 -0.432703,0.96601 -0.966004,0.96601 -0.534677,0 -0.967384,-0.43271 -0.967384,-0.96601 0,-0.53468 0.432707,-0.96738 0.967384,-0.96738 0.533301,0 0.966004,0.4327 0.966004,0.96738"
       style="fill:#ffffff;fill-opacity:1;fill-rule:nonzero;stroke:none;stroke-width:0.35277778" />
    <path
       inkscape:connector-curvature="0"
       id="path4886"
       d="m 84.135924,144.65079 c 0,0.5333 -0.432703,0.96601 -0.966004,0.96601 -0.534681,0 -0.967384,-0.43271 -0.967384,-0.96601 0,-0.53468 0.432703,-0.96738 0.967384,-0.96738 0.533301,0 0.966004,0.4327 0.966004,0.96738"
       style="fill:#ffffff;fill-opacity:1;fill-rule:nonzero;stroke:none;stroke-width:0.35277778" />
    <path
       inkscape:connector-curvature="0"
       id="path4888"
       d="m 84.581031,123.00181 c 0,0.78824 -0.638034,1.42765 -1.42627,1.42765 -0.789615,0 -1.427649,-0.63941 -1.427649,-1.42765 0,-0.78824 0.638034,-1.42765 1.427649,-1.42765 0.788236,0 1.42627,0.63941 1.42627,1.42765"
       style="fill:#4fc1e9;fill-opacity:1;fill-rule:nonzero;stroke:none;stroke-width:0.35277778" />
    <path
       inkscape:connector-curvature="0"
       id="path4890"
       d="m 87.509362,123.29947 h -9.480903 v 1.17271 h 9.480903 z m 0,0"
       style="fill:#ffffff;fill-opacity:1;fill-rule:nonzero;stroke:none;stroke-width:0.35277778" />
    <path
       inkscape:connector-curvature="0"
       id="path4892"
       d="m 82.265927,119.41891 c 0,1.05282 -0.853006,1.90583 -1.905829,1.90583 -1.052819,0 -1.905825,-0.85301 -1.905825,-1.90583 0,-1.05282 0.853006,-1.90583 1.905825,-1.90583 1.052823,0 1.905829,0.85301 1.905829,1.90583"
       style="fill:#4fc1e9;fill-opacity:1;fill-rule:nonzero;stroke:none;stroke-width:0.35277778" />
    <path
       inkscape:connector-curvature="0"
       id="path4894"
       d="m 88.795071,115.59899 c 0,1.73633 -1.408356,3.14469 -3.144682,3.14469 -1.737706,0 -3.144686,-1.40836 -3.144686,-3.14469 0,-1.73771 1.40698,-3.14468 3.144686,-3.14468 1.736326,0 3.144682,1.40697 3.144682,3.14468"
       style="fill:#4fc1e9;fill-opacity:1;fill-rule:nonzero;stroke:none;stroke-width:0.35277778" />
  </g>
</svg>
